<?xml version="1.0" encoding="UTF-8"?>
<svg id="Layer_1" xmlns="http://www.w3.org/2000/svg" version="1.1" viewBox="0 0 609.17 224.16">
  <!-- Generator: Adobe Illustrator 30.2.1, SVG Export Plug-In . SVG Version: 2.1.1 Build 1)  -->
  <defs>
    <style>
      .st0, .st1 {
        fill-rule: evenodd;
      }

      .st0, .st2 {
        fill: #00aeef;
      }

      .st1, .st3 {
        fill: #273b81;
      }

      .st4 {
        fill: none;
      }
    </style>
  </defs>
  <path class="st4" d="M301.14,11982.01"/>
  <path class="st4" d="M301.14-4400.99"/>
  <path class="st4" d="M8493.14,136.01"/>
  <path class="st4" d="M-7889.86,136.01"/>
  <g>
    <path class="st3" d="M204.07,103.26h17.61c5.95,0,9.68,2.15,8.31,8.58-1.27,6.02-5.74,8.17-10.94,8.17h-8.14l-1.68,7.93h-10.4l5.23-24.69ZM212.04,114.82h2.12c3.69,0,5.2-.82,5.71-3.25.44-2.05-.38-3.11-3.35-3.11h-3.15l-1.33,6.36Z"/>
    <path class="st3" d="M241.4,103.26h10.4l-3.97,18.67h11.39l-1.27,6.02h-21.78l5.23-24.69Z"/>
    <path class="st3" d="M281.06,103.26h12.96l7.35,24.69h-11.46l-.92-4.1h-12.76l-2.8,4.1h-10.19l17.82-24.69ZM287.7,118.45l-1.98-8.62-5.85,8.62h7.83Z"/>
    <path class="st3" d="M314.02,103.26h15.22l4.82,16.55h.1l3.49-16.55h9.03l-5.23,24.69h-14.74l-5.09-17.58h-.07l-3.73,17.58h-9.03l5.23-24.69Z"/>
    <path class="st3" d="M357.61,103.26h23.66l-1.09,5.2h-13.61l-.96,4.55h12.75l-1.09,5.2h-12.75l-.99,4.55h13.75l-1.09,5.2h-23.8l5.23-24.69Z"/>
    <path class="st3" d="M411.15,103.26h17.61c5.95,0,9.68,2.15,8.31,8.58-1.27,6.02-5.75,8.17-10.94,8.17h-8.14l-1.68,7.93h-10.4l5.23-24.69ZM419.12,114.82h2.12c3.69,0,5.2-.82,5.71-3.25.44-2.05-.38-3.11-3.35-3.11h-3.15l-1.33,6.36Z"/>
    <path class="st3" d="M448.49,103.26h10.4l-3.97,18.67h11.39l-1.27,6.02h-21.78l5.23-24.69Z"/>
    <path class="st3" d="M488.15,103.26h12.96l7.35,24.69h-11.46l-.92-4.1h-12.75l-2.8,4.1h-10.19l17.82-24.69ZM494.78,118.45l-1.98-8.62-5.85,8.62h7.83Z"/>
    <path class="st3" d="M538.71,112.43c.38-3.04-.62-4.41-3.42-4.41-4.04,0-6.16,3.49-7.01,7.59-.89,4.1-.24,7.59,3.8,7.59,3.15,0,4.99-1.47,5.74-4.65h10.6c-.51,2.22-1.23,4.38-3.52,6.22-3.35,2.67-8.45,3.83-13.75,3.83-12.38,0-15.35-5.1-13.68-12.99,1.23-5.85,5.4-12.99,19.22-12.99,6.19,0,10.22,1.16,11.97,3.21,1.2,1.47,1.4,2.97.65,6.6h-10.6Z"/>
    <path class="st3" d="M561.31,103.26h23.66l-1.09,5.2h-13.61l-.96,4.55h12.75l-1.09,5.2h-12.75l-.99,4.55h13.75l-1.09,5.2h-23.8l5.23-24.69Z"/>
  </g>
  <g>
    <polygon class="st0" points="84.01 143.17 97.45 166.45 57.16 166.45 43.3 190.45 17.31 190.45 72.31 95.19 85.31 117.7 70.6 143.17 84.01 143.17"/>
    <path class="st1" d="M188.47,72.36c0-26-21.27-47.27-47.27-47.27h-56.98c-1.43,0-2.84.06-4.24.19l13.3,23.04h47.92c13.22,0,24.04,10.82,24.04,24.04,0,11.85-8.69,21.76-20,23.69-8.13-14.38-23.57-24.16-41.18-24.16h-56.98c-1.43,0-2.84.06-4.24.19l13.3,23.04h47.92c13.22,0,24.04,10.82,24.04,24.04s-10.82,24.04-24.04,24.04h-3.58l12.88,22.31c21.59-4.35,37.97-23.53,37.97-46.35,0-.22-.01-.43-.02-.64,21.18-4.67,37.16-23.63,37.16-46.17Z"/>
  </g>
  <path class="st4" d="M8493.14,166.45"/>
  <path class="st4" d="M-7889.86,166.45"/>
  <path class="st4" d="M196.31,11982.01"/>
  <path class="st4" d="M196.31-4400.99"/>
  <path class="st4" d="M199.89,11982.01"/>
  <path class="st4" d="M199.89-4400.99"/>
  <g>
    <path class="st2" d="M218.88,160.67h-13.62l-2.86,5.78h-3.57l11.41-22.2h3.75l11.41,22.2h-3.66l-2.86-5.78ZM217.65,158.15l-5.53-11.19-5.56,11.19h11.1Z"/>
    <path class="st2" d="M254.08,144.25h3.54l8.7,19.49,8.67-19.49h3.38l-10.21,22.2h-3.9l-10.18-22.2Z"/>
    <path class="st2" d="M311.91,144.25h3.2v22.2h-3.2v-22.2Z"/>
    <path class="st2" d="M368.7,160.67h-13.62l-2.86,5.78h-3.57l11.41-22.2h3.75l11.41,22.2h-3.66l-2.86-5.78ZM367.47,158.15l-5.53-11.19-5.56,11.19h11.1Z"/>
    <path class="st2" d="M413.31,146.96h-9.41v-2.71h22.01v2.71h-9.41v19.49h-3.2v-19.49Z"/>
    <path class="st2" d="M459.45,144.25h3.2v22.2h-3.2v-22.2Z"/>
    <path class="st2" d="M510.61,143.67c9.31,0,12.48,6.39,12.48,11.68s-3.17,11.68-12.48,11.68-12.48-6.39-12.48-11.68,3.17-11.68,12.48-11.68ZM510.61,164.51c5.38,0,9.1-3.69,9.1-9.16s-3.72-9.16-9.1-9.16-9.1,3.69-9.1,9.16,3.72,9.16,9.1,9.16Z"/>
    <path class="st2" d="M576.68,144.25h3.2v22.2h-4.37l-13.59-18.94h-.06v18.94h-3.2v-22.2h4.37l13.59,18.94h.06v-18.94Z"/>
  </g>
  <path class="st4" d="M580.93,11982.01"/>
  <path class="st4" d="M580.93-4400.99"/>
</svg>